# AST/ASF file generated using VICON BodyLanguage
# -----------------------------------------------
:version 1.10
:name VICON
:units
  mass 1.0
  length 0.45
  angle deg
:documentation
   .ast/.asf automatically generated from VICON data using
   VICON BodyBuilder and BodyLanguage model FoxedUp or BRILLIANT.MOD
:root
   order TX TY TZ RX RY RZ
   axis XYZ
   position 0 0 0  
   orientation 0 0 0 
:bonedata
  begin
     id 1 
     name lhipjoint
     direction 0.541323 -0.757556 0.364798 
     length 2.47576 
     axis 0 0 0  XYZ
  end
  begin
     id 2 
     name lfemur
     direction 0.34202 -0.939693 0  
     length 7.46493  
     axis 0 0 20  XYZ
    dof rx ry rz
    limits (-160.0 20.0)
           (-70.0 70.0)
           (-60.0 70.0)
  end
  begin
     id 3 
     name ltibia
     direction 0.34202 -0.939693 0   
     length 7.73805   
     axis 0 0 20   XYZ
    dof rx
    limits (-10.0 170.0)
  end
  begin
     id 4 
     name lfoot
     direction 0.107174 -0.294458 0.949636   
     length 2.25864   
     axis -90 7.62852e-016 20   XYZ
    dof rx rz
    limits (-45.0 90.0)
           (-70.0 20.0)
  end
  begin
     id 5 
     name ltoes
     direction 1.53606e-011 -4.21934e-011 1   
     length 1.12451   
     axis -90 7.62852e-016 20   XYZ
    dof rx
    limits (-90.0 20.0)
  end
  begin
     id 6 
     name rhipjoint
     direction -0.524745 -0.766967 0.36933   
     length 2.44538  
     axis 0 0 0  XYZ 
  end
  begin
     id 7 
     name rfemur
     direction -0.34202 -0.939693 0   
     length 7.61604   
     axis 0 0 -20   XYZ
    dof rx ry rz
    limits (-160.0 20.0)
           (-70.0 70.0)
           (-70.0 60.0)
  end
  begin
     id 8 
     name rtibia
     direction -0.34202 -0.939693 0   
     length 7.61056   
     axis 0 0 -20   XYZ
    dof rx
    limits (-10.0 170.0)
 end
 begin
     id 9 
     name rfoot
     direction -0.12616 -0.346623 0.929482   
     length 2.46372  
     axis -90 -7.62852e-016 -20   XYZ
    dof rx rz
    limits (-45.0 90.0)
           (-20.0 70.0)
  end
  begin
     id 10 
     name rtoes
     direction -1.53531e-011 -4.22004e-011 1   
     length 1.21611   
     axis -90 -7.62852e-016 -20   XYZ
    dof rx
    limits (-90.0 20.0)
  end
  begin
     id 11 
     name lowerback
     direction -0.000778023 0.997293 -0.0735223   
     length 2.06139   
     axis 0 0 0   XYZ
    dof rx ry rz
    limits (-20.0 45.0)
           (-30.0 30.0)
           (-30.0 30.0)
  end
  begin
     id 12 
     name upperback
     direction 0.0222598 0.999722 -0.0078355   
     length 2.06383   
     axis 0 0 0   XYZ
    dof rx ry rz
    limits (-20.0 45.0)
           (-30.0 30.0)
           (-30.0 30.0)
  end
  begin
     id 13 
     name thorax
     direction 0.0219654 0.999405 0.0265994   
     length 2.07163   
     axis 0 0 0   XYZ
    dof rx ry rz
    limits (-20.0 45.0)
           (-30.0 30.0)
           (-30.0 30.0)
  end
  begin
     id 14 
     name lowerneck
     direction 0.0213282 0.988147 0.15202   
     length 1.75969   
     axis 0 0 0   XYZ
    dof rx ry rz
    limits (-20.0 45.0)
           (-30.0 30.0)
           (-30.0 30.0)
  end
  begin
     id 15 
     name upperneck
     direction -0.0546456 0.982624 -0.177379   
     length 1.79244   
     axis 0 0 0   XYZ
    dof rx ry rz
    limits (-20.0 45.0)
           (-30.0 30.0)
           (-30.0 30.0)
  end
  begin
     id 16
     name head
     direction -0.0199987 0.996855 -0.076686  
     length 1.80555  
     axis 0 0 0   XYZ
    dof rx ry rz
    limits (-20.0 45.0)
           (-30.0 30.0)
           (-30.0 30.0)
  end
  begin
     id 17 
     name lclavicle
     direction 0.929565 0.363219 -0.063096  
     length 3.55722  
     axis 0 0 0   XYZ
    dof ry rz
    limits (-20.0 10.0)
           (0.0 20.0)
  end
  begin
     id 18 
     name lhumerus
     direction 1 -4.48993e-011 -2.36203e-027   
     length 4.92785   
     axis 180 -30 -90   XYZ
    dof rx ry rz
    limits (-60.0 90.0)
           (-90.0 90.0)
           (-90.0 90.0)
  end
  begin
     id 19
     name lradius
     direction 1 -4.48947e-011 2.02997e-027   
     length 3.44052   
     axis 180 -30 -90   XYZ
    dof rx
    limits (-10.0 170.0)
  end
  begin
     id 20
     name lwrist
     direction 1 -4.48962e-011 1.45991e-027   
     length 1.72026   
     axis 1.49639e-024 90 90   XYZ
    dof ry
    limits (-180.0 0.0)
 end
  begin
     id 21 
     name lhand
     direction 1 -4.48984e-011 2.91906e-027   
     length 0.654326   
     axis -1.863e-015 90 90   XYZ
    dof rx rz
    limits (-90.0 90.0)
           (-45.0 45.0)
  end
  begin
     id 22 
     name lfingers
     direction 1 -4.48961e-011 5.83968e-027   
     length 0.527534   
     axis -3.72598e-015 90 90   XYZ
    dof rx
    limits (0.0 90.0)
  end
  begin
     id 23
     name lthumb
     direction 0.707107 -6.34963e-011 0.707107   
     length 0.757437   
     axis -90 45 -6.68868e-015   XYZ
    dof rx rz
    limits (-45.0 45.0)
           (-45.0 45.0)
  end
  begin
     id 24 
     name rclavicle
     direction -0.902944 0.422599 -0.0781198   
     length 3.54432  
     axis 0 0 0   XYZ 
    dof ry rz
    limits (-10.0 20.0)
           (-20.0 0.0)
  end
  begin
     id 25 
     name rhumerus
     direction -1 -4.48953e-011 -4.75835e-028  
     length 5.09181   
     axis 180 30 90   XYZ
    dof rx ry rz
    limits (-90.0 60.0)
           (-90.0 90.0)
           (-90.0 90.0)
  end
  begin
     id 26 
     name rradius
     direction -1 -4.48986e-011 -3.25889e-027   
     length 3.49865   
     axis 180 30 90   XYZ
    dof rx
    limits (-10.0 170.0)
  end
  begin
     id 27 
     name rwrist
     direction -1 -4.48963e-011 1.45989e-027   
     length 1.74933   
     axis 1.49639e-024 -90 -90   XYZ
    dof ry
    limits (-180.0 0.0)
  end
  begin
     id 28
     name rhand
     direction -1 -4.49003e-011 2.91844e-027   
     length 0.66641   
     axis -1.863e-015 -90 -90   XYZ
    dof rx rz
    limits (-90.0 90.0)
           (-45.0 45.0)
  end
  begin
     id 29
     name rfingers
     direction -1 -4.48973e-011 5.83886e-027   
     length 0.537277   
     axis -3.72598e-015 -90 -90   XYZ
    dof rx
    limits (0.0 90.0)
  end
  begin
     id 30
     name rthumb
     direction -0.707107 -6.34976e-011 0.707107   
     length 0.771425   
     axis -90 -45 6.68868e-015   XYZ
    dof rx rz
    limits (-45.0 45.0)
           (-45.0 45.0)
  end
:hierarchy
  begin
    root lhipjoint rhipjoint lowerback
    lhipjoint lfemur
    lfemur ltibia
    ltibia lfoot
    lfoot ltoes
    rhipjoint rfemur
    rfemur rtibia
    rtibia rfoot
    rfoot rtoes
    lowerback upperback
    upperback thorax
    thorax lowerneck lclavicle rclavicle
    lowerneck upperneck
    upperneck head
    lclavicle lhumerus
    lhumerus lradius
    lradius lwrist
    lwrist lhand lthumb
    lhand lfingers
    rclavicle rhumerus
    rhumerus rradius
    rradius rwrist
    rwrist rhand rthumb
    rhand rfingers
  end

#!OML:ASF H:\LiuWeirdWalks\Patient Classification 1\Patient 1\Session 1\male.ASF
:FULLY-SPECIFIED
:DEGREES
23
root 0.668318 17.7972 -31.6081 0.323341 36.136 -2.25126
lowerback 0.380994 8.87922 2.5028
upperback -2.99166 11.9266 0.210069
thorax -2.84151 5.90134 -1.43874
lowerneck 3.05892 17.5165 18.0107
upperneck 2.28846 24.4937 -13.8963
head 4.07551 12.294 -5.44228
rclavicle -1.54908e-013 -1.79652e-014
rhumerus -29.1447 -1.63285 -86.3894
rradius 31.1594
rwrist -9.79345
rhand -15.6549 1.61195
rfingers 7.12502
rthumb 10.5331 -28.1041
lclavicle -1.54908e-013 -1.79652e-014
lhumerus -36.6774 16.2527 78.0017
lradius 20.3192
lwrist 2.37379
lhand -31.99 -17.5491
lfingers 7.12502
lthumb -5.23909 12.3661
rfemur 0.373393 -14.0993 20.0063
rtibia 26.2017
rfoot -20.9399 -40.3785
rtoes 2.70185
lfemur -15.2071 -10.6778 -14.3823
ltibia 32.2193
lfoot -14.0451 2.59234
ltoes -9.30759
24
root 0.659589 17.797 -31.6087 0.277663 36.1019 -2.3007
lowerback 0.404224 8.87773 2.42789
upperback -2.99295 11.9251 0.243534
thorax -2.87784 5.9021 -1.3723
lowerneck 3.06166 17.4964 17.9776
upperneck 2.16058 24.459 -13.9656
head 4.03646 12.2762 -5.46884
rclavicle 5.53662e-014 -1.6027e-015
rhumerus -29.3617 -2.45222 -86.0847
rradius 30.2051
rwrist -9.64072
rhand -15.3325 1.26589
rfingers 7.12502
rthumb 10.8441 -28.4341
lclavicle 5.53662e-014 -1.6027e-015
lhumerus -36.3555 15.5332 78.4781
lradius 20.6682
lwrist 2.95942
lhand -31.6381 -17.1641
lfingers 7.12502
lthumb -4.89926 12.7593
rfemur 0.380641 -14.0457 20.0841
rtibia 26.1787
rfoot -20.9511 -40.3988
rtoes 2.7351
lfemur -15.202 -10.6611 -14.3097
ltibia 32.2153
lfoot -14.0382 2.60043
ltoes -9.31681
25
root 0.650772 17.7966 -31.6091 0.220562 36.0522 -2.35994
lowerback 0.427753 8.87652 2.35224
upperback -2.99155 11.9241 0.289621
thorax -2.91438 5.9034 -1.29287
lowerneck 3.09336 17.478 17.9186
upperneck 1.98267 24.4258 -14.0375
head 3.97524 12.2603 -5.49826
rclavicle -1.14627e-014 -1.16538e-014
rhumerus -29.5792 -3.3627 -85.7031
rradius 29.2198
rwrist -9.26185
rhand -14.9907 0.931672
rfingers 7.12502
rthumb 11.1737 -28.7508
lclavicle -1.14627e-014 -1.16538e-014
lhumerus -36.0556 14.7923 78.9587
lradius 21.0575
lwrist 3.63363
lhand -31.2519 -16.6747
lfingers 7.12502
lthumb -4.52641 13.2569
rfemur 0.39943 -13.9819 20.1695
rtibia 26.148
rfoot -20.9717 -40.412
rtoes 2.77911
lfemur -15.187 -10.6299 -14.2285
ltibia 32.2135
lfoot -14.0357 2.60852
ltoes -9.32091
26
root 0.641744 17.7963 -31.6097 0.151545 35.9927 -2.43389
lowerback 0.46885 8.88868 2.32436
upperback -3.00604 11.942 0.302529
thorax -2.96001 5.91219 -1.27507
lowerneck 3.13282 17.4438 17.9207
upperneck 1.82095 24.3731 -14.0905
head 3.91943 12.2354 -5.53176
rclavicle -1.37728e-013 -1.56046e-014
rhumerus -29.8251 -4.37097 -85.3061
rradius 28.2397
rwrist -8.77262
rhand -14.7321 0.588022
rfingers 7.12502
rthumb 11.4232 -29.0808
lclavicle -1.37728e-013 -1.56046e-014
lhumerus -35.7658 13.9419 79.4074
lradius 21.4853
lwrist 4.40015
lhand -30.7886 -16.0614
lfingers 7.12502
lthumb -4.07897 13.8793
rfemur 0.424856 -13.9082 20.2687
rtibia 26.1094
rfoot -20.9916 -40.4258
rtoes 2.82745
lfemur -15.168 -10.5995 -14.1344
ltibia 32.2159
lfoot -14.0367 2.62508
ltoes -9.31468
27
root 0.633381 17.796 -31.6114 0.0917697 35.9465 -2.50511
lowerback 0.516805 8.89557 2.32545
upperback -3.0296 11.9535 0.298123
thorax -3.0096 5.91666 -1.29097
lowerneck 3.17125 17.4088 17.9433
upperneck 1.67392 24.3194 -14.1286
head 3.86847 12.21 -5.56268
rclavicle 1.18859e-013 6.75868e-015
rhumerus -30.0958 -5.40825 -84.8797
rradius 27.2776
rwrist -8.11954
rhand -14.4977 0.247517
rfingers 7.12502
rthumb 11.6492 -29.4086
lclavicle 1.18859e-013 6.75868e-015
lhumerus -35.4904 13.1081 79.8092
lradius 21.9287
lwrist 5.11656
lhand -30.2918 -15.285
lfingers 7.12502
lthumb -3.59925 14.6644
rfemur 0.442878 -13.8561 20.3608
rtibia 26.0649
rfoot -21.0001 -40.433
rtoes 2.87383
lfemur -15.1653 -10.5977 -14.0461
ltibia 32.2227
lfoot -14.0299 2.65874
ltoes -9.30632
28
root 0.625414 17.7957 -31.6138 0.0281035 35.9047 -2.57453
lowerback 0.578635 8.8922 2.34752
upperback -3.05304 11.9519 0.288689
thorax -3.06193 5.91391 -1.32457
lowerneck 3.20769 17.3799 17.9743
upperneck 1.55324 24.2756 -14.1533
head 3.82647 12.1896 -5.58799
rclavicle -1.7607e-013 -1.91827e-014
rhumerus -30.3829 -6.45492 -84.4145
rradius 26.3281
rwrist -7.27761
rhand -14.2822 -0.0571942
rfingers 7.12502
rthumb 11.857 -29.7015
lclavicle -1.7607e-013 -1.91827e-014
lhumerus -35.2398 12.2761 80.1798
lradius 22.4085
lwrist 5.82408
lhand -29.6406 -14.4025
lfingers 7.12502
lthumb -2.9704 15.5565
rfemur 0.465352 -13.8105 20.4461
rtibia 26.019
rfoot -21.003 -40.44
rtoes 2.92443
lfemur -15.1589 -10.6205 -13.9645
ltibia 32.2321
lfoot -14.0188 2.71341
ltoes -9.29194
29
root 0.61787 17.7955 -31.6168 -0.0429442 35.8611 -2.6493
lowerback 0.652117 8.88458 2.39005
upperback -3.0745 11.9454 0.277611
thorax -3.11442 5.90808 -1.3718
lowerneck 3.22631 17.3548 18.0111
upperneck 1.46766 24.2367 -14.1649
head 3.79756 12.1709 -5.60629
rclavicle -3.90208e-014 -3.47873e-015
rhumerus -30.6804 -7.4748 -83.9322
rradius 25.4155
rwrist -6.47768
rhand -14.0435 -0.38849
rfingers 7.12502
rthumb 12.0872 -30.0194
lclavicle -3.90208e-014 -3.47873e-015
lhumerus -35.0083 11.43 80.5344
lradius 22.922
lwrist 6.55952
lhand -28.8637 -13.4532
lfingers 7.12502
lthumb -2.22007 16.515
rfemur 0.488984 -13.7617 20.5332
rtibia 25.9763
rfoot -21.0122 -40.4481
rtoes 2.98389
lfemur -15.1478 -10.656 -13.8816
ltibia 32.2406
lfoot -14.0034 2.78063
ltoes -9.26459
30
root 0.61108 17.7953 -31.6202 -0.101681 35.813 -2.70252
lowerback 0.721872 8.87514 2.41788
upperback -3.0893 11.9359 0.267519
thorax -3.16118 5.90122 -1.40926
lowerneck 3.23877 17.339 18.0155
upperneck 1.37055 24.2059 -14.1559
head 3.7608 12.1558 -5.6143
rclavicle -5.63741e-014 -1.1778e-014
rhumerus -30.9783 -8.46397 -83.4309
rradius 24.5179
rwrist -5.72315
rhand -13.9553 -0.684349
rfingers 7.12502
rthumb 12.1722 -30.3102
lclavicle -5.63741e-014 -1.1778e-014
lhumerus -34.7775 10.642 80.8589
lradius 23.4315
lwrist 7.28898
lhand -27.9819 -12.4685
lfingers 7.12502
lthumb -1.36843 17.5069
rfemur 0.511189 -13.721 20.594
rtibia 25.938
rfoot -21.0137 -40.4468
rtoes 3.04638
lfemur -15.1315 -10.695 -13.8224
ltibia 32.246
lfoot -13.9865 2.85581
ltoes -9.23881
31
root 0.604915 17.7951 -31.624 -0.151668 35.7531 -2.74032
lowerback 0.785285 8.8528 2.43248
upperback -3.09042 11.9087 0.271835
thorax -3.19651 5.88635 -1.42299
lowerneck 3.25999 17.3351 18.0096
upperneck 1.26798 24.194 -14.1679
head 3.72553 12.1504 -5.62533
rclavicle 1.12195e-013 1.42131e-014
rhumerus -31.2646 -9.45726 -82.8867
rradius 23.6292
rwrist -4.90917
rhand -13.9101 -0.951778
rfingers 7.12502
rthumb 12.2158 -30.5751
lclavicle 1.12195e-013 1.42131e-014
lhumerus -34.5594 9.91214 81.1697
lradius 23.9558
lwrist 8.04334
lhand -26.9666 -11.509
lfingers 7.12502
lthumb -0.387793 18.4704
rfemur 0.530332 -13.6828 20.6353
rtibia 25.9047
rfoot -21.0076 -40.4352
rtoes 3.10823
lfemur -15.1109 -10.7318 -13.7802
ltibia 32.2467
lfoot -13.9628 2.94046
ltoes -9.21124
32
root 0.598952 17.7949 -31.6276 -0.188956 35.6701 -2.76013
lowerback 0.841159 8.83091 2.42536
upperback -3.08698 11.8813 0.280768
thorax -3.22823 5.87214 -1.4194
lowerneck 3.29998 17.3328 18.0213
upperneck 1.16606 24.1891 -14.1957
head 3.69277 12.1492 -5.64333
rclavicle 1.32415e-013 1.66979e-014
rhumerus -31.5456 -10.4609 -82.3189
rradius 22.7492
rwrist -4.18487
rhand -14.0466 -1.16596
rfingers 7.12502
rthumb 12.0842 -30.797
lclavicle 1.32415e-013 1.66979e-014
lhumerus -34.3493 9.24367 81.4417
lradius 24.4637
lwrist 8.74169
lhand -25.9073 -10.5705
lfingers 7.12502
lthumb 0.63529 19.4083
rfemur 0.544493 -13.6387 20.658
rtibia 25.8776
rfoot -20.9888 -40.4119
rtoes 3.1622
lfemur -15.0823 -10.7432 -13.754
ltibia 32.242
lfoot -13.941 3.02101
ltoes -9.18216
33
root 0.593089 17.7947 -31.6313 -0.212777 35.5623 -2.77159
lowerback 0.874575 8.79696 2.38333
upperback -3.07152 11.8369 0.322206
thorax -3.24931 5.8512 -1.36068
lowerneck 3.38721 17.3448 18.002
upperneck 1.01151 24.2088 -14.2629
head 3.64221 12.162 -5.67235
rclavicle -1.89731e-013 -2.36057e-014
rhumerus -31.8106 -11.5283 -81.6485
rradius 21.8423
rwrist -3.1739
rhand -14.1602 -1.30243
rfingers 7.12502
rthumb 11.9747 -30.9399
lclavicle -1.89731e-013 -2.36057e-014
lhumerus -34.1633 8.6503 81.7124
lradius 24.9803
lwrist 9.45123
lhand -24.8486 -9.66062
lfingers 7.12502
lthumb 1.65776 20.3127
rfemur 0.545587 -13.5879 20.673
rtibia 25.8557
rfoot -20.9616 -40.3748
rtoes 3.21306
lfemur -15.0564 -10.7206 -13.7332
ltibia 32.2335
lfoot -13.9202 3.09401
ltoes -9.15738
34
root 0.586964 17.7947 -31.635 -0.232879 35.43 -2.77896
lowerback 0.937957 8.86261 2.37797
upperback -3.111 11.9258 0.264573
thorax -3.31153 5.89324 -1.4317
lowerneck 3.44703 17.2555 18.2478
upperneck 0.948295 24.1017 -14.3424
head 3.63651 12.1116 -5.74414
rclavicle 1.94871e-014 -2.28602e-015
rhumerus -32.2343 -13.0127 -80.8732
rradius 21.0054
rwrist -1.96197
rhand -14.2264 -1.41687
rfingers 7.12502
rthumb 11.9108 -31.0581
lclavicle 1.94871e-014 -2.28602e-015
lhumerus -33.968 7.67374 81.979
lradius 25.4808
lwrist 10.1981
lhand -23.8144 -8.77486
lfingers 7.12502
lthumb 2.65659 21.1883
rfemur 0.541777 -13.5277 20.6839
rtibia 25.8382
rfoot -20.9265 -40.3252
rtoes 3.25807
lfemur -15.0257 -10.6708 -13.7147
ltibia 32.2233
lfoot -13.9025 3.16406
ltoes -9.12836
35
root 0.581346 17.7946 -31.6392 -0.240061 35.2908 -2.7892
lowerback 1.05419 9.14666 2.45088
upperback -3.27316 12.3069 -0.00171818
thorax -3.45877 6.07336 -1.77619
lowerneck 3.37586 16.9471 19.0122
upperneck 1.09527 23.7048 -14.4151
head 3.72745 11.9141 -5.89009
rclavicle -3.68621e-014 -3.37934e-015
rhumerus -33.0317 -15.2773 -79.9242
rradius 20.3035
rwrist -0.530684
rhand -14.3129 -1.49994
rfingers 7.12502
rthumb 11.8274 -31.1459
lclavicle -3.68621e-014 -3.37934e-015
lhumerus -33.7519 5.81981 82.2965
lradius 25.9516
lwrist 10.9912
lhand -22.8429 -7.91007
lfingers 7.12502
lthumb 3.59481 22.0394
rfemur 0.519435 -13.4844 20.6943
rtibia 25.8223
rfoot -20.8629 -40.2597
rtoes 3.28478
lfemur -15.014 -10.6155 -13.692
ltibia 32.2161
lfoot -13.8802 3.23896
ltoes -9.10285
